<svg width="64" height="64" viewBox="0 0 64 64" fill="none" xmlns="http://www.w3.org/2000/svg">
<path d="M48.63 51.63H17.59C10.25 51.63 4.5 45.98 4.5 38.77C4.5 31.56 9.77 26.39 16.67 25.94C19.38 18 26.84 12.58 35.33 12.58C46.21 12.58 55.07 21.42 55.07 32.29C55.07 32.32 55.07 32.35 55.07 32.38C57.87 34.42 59.51 37.55 59.51 40.98C59.51 46.94 54.74 51.62 48.64 51.62L48.63 51.63ZM17.57 29.91C12.5 29.91 8.5 33.8 8.5 38.77C8.5 43.74 12.49 47.63 17.59 47.63H48.63C52.48 47.63 55.5 44.71 55.5 40.99C55.5 38.56 54.23 36.44 52.01 35.17C51.34 34.79 50.95 34.06 51.01 33.29L51.03 33.04C51.05 32.79 51.07 32.55 51.07 32.29C51.07 23.63 44.01 16.58 35.33 16.58C28.14 16.58 21.87 21.46 20.09 28.45C19.86 29.37 19 30 18.06 29.96C17.93 29.96 17.8 29.94 17.67 29.92H17.57V29.91Z" fill="#29B5E8"/>
</svg>
