<svg width="65" height="64" viewBox="0 0 65 64" fill="none" xmlns="http://www.w3.org/2000/svg">
<path fill-rule="evenodd" clip-rule="evenodd" d="M52.9491 43.6492C52.7586 44.0278 52.395 44.3031 52.0141 44.3891C51.6332 44.4752 51.1658 44.3891 50.8022 44.1999C50.0577 43.7353 49.7634 42.8061 50.2481 42.049C50.5252 41.5844 51.0965 41.3091 51.6505 41.3091C52.2046 41.3091 52.2046 41.3091 52.395 41.4983C53.1395 41.9629 53.4338 42.8921 52.9491 43.6492ZM35.9818 52.2184C35.5143 51.2892 34.666 50.5493 33.6445 50.1707V38.4355C35.2373 38.1602 36.5531 37.317 37.5746 36.1125L47.7896 41.9801C47.5126 43.0986 47.7896 44.2171 48.3437 45.0602C45.158 48.8802 40.8469 51.3064 35.9645 52.1324V52.2184H35.9818ZM32.4325 55.4878C31.5842 55.4878 30.8397 54.7479 30.8397 53.9047C30.8397 53.0616 31.5842 52.3216 32.4325 52.3216C33.2809 52.3216 34.0254 53.0616 34.0254 53.9047C34.0254 54.7479 33.2809 55.4878 32.4325 55.4878ZM16.4868 45.1463C16.7638 44.7677 16.9542 44.4064 17.0408 43.9418C17.2312 43.2019 17.2312 42.548 17.0408 41.8941L27.1692 36.1125C28.208 37.317 29.6104 38.2634 31.2898 38.5387V50.274C30.251 50.5493 29.42 51.3064 28.9525 52.3216C24.0701 51.4785 19.759 48.9662 16.5733 45.2495L16.4868 45.1635V45.1463ZM12.8336 44.4064C12.4527 44.3203 12.0891 44.0278 11.8987 43.6664C11.7082 43.2879 11.6217 42.9265 11.7082 42.4619C11.7948 42.0834 12.0891 41.722 12.4527 41.5328C12.7297 41.3435 13.0067 41.3435 13.3011 41.3435C13.8551 41.3435 14.4265 41.6188 14.7035 42.0834C14.8939 42.4619 14.9805 42.8233 14.8939 43.2879C14.8074 43.6664 14.513 44.0278 14.1494 44.2171C13.7685 44.4064 13.3011 44.4924 12.9375 44.4064H12.8336ZM11.8987 20.1787C12.1757 19.7141 12.747 19.3355 13.3011 19.3355C13.8551 19.3355 13.8551 19.3355 14.1494 19.5248C14.5303 19.7141 14.8074 20.0754 14.8939 20.454C14.9805 20.8326 14.8939 21.2972 14.7035 21.6585C14.513 22.0371 14.1494 22.3124 13.7685 22.3984C13.3876 22.4844 12.9202 22.3984 12.5566 22.2091C12.1757 22.0199 11.8987 21.6585 11.8121 21.2799C11.7255 20.9014 11.8121 20.4368 12.0026 20.0754L11.8987 20.1787ZM28.8659 11.6095C29.3334 12.642 30.1818 13.2786 31.2033 13.6572V25.3925C29.6104 25.6678 28.2946 26.5109 27.2731 27.6294L17.0581 21.7617C17.1447 21.2111 17.1447 20.5572 17.0581 19.9034C16.9715 19.4388 16.7811 19.0602 16.5041 18.6989C19.6898 14.8789 24.0008 12.4527 28.8833 11.6267L28.8659 11.6095ZM32.4325 8.34017C33.2809 8.34017 34.0254 9.08008 34.0254 9.92323C34.0254 10.7664 33.2809 11.5063 32.4325 11.5063C31.5842 11.5063 30.8397 10.7664 30.8397 9.92323C30.8397 9.08008 31.5842 8.34017 32.4325 8.34017ZM48.361 18.6817C47.8069 19.5248 47.5126 20.54 47.7031 21.5725L37.3842 27.4401C36.4493 26.4077 35.1334 25.5817 33.6272 25.3925V13.6572C34.666 13.2786 35.497 12.6248 35.9645 11.6095C40.8469 12.4527 45.158 14.9649 48.3437 18.6817H48.361ZM52.9491 20.1787C53.4165 20.9186 53.1395 21.951 52.395 22.3296C52.0141 22.5189 51.6505 22.6049 51.1831 22.5189C50.8022 22.4328 50.4386 22.1403 50.2481 21.779C49.7807 21.039 50.0577 20.0066 50.8022 19.6281C51.5467 19.1635 52.4816 19.4388 52.9664 20.1787H52.9491ZM15.7423 39.8293C15.3614 39.4507 14.8074 39.1754 14.236 39.0893C13.7685 39.0033 13.3876 38.9001 12.9202 39.0033C12.0718 36.7664 11.6044 34.3402 11.6044 31.9312C11.6044 29.5222 12.0718 27.0788 12.9202 24.859H13.1972C13.5781 24.859 13.8551 24.859 14.236 24.773C14.8939 24.5837 15.448 24.3084 15.9154 23.8438L26.1304 29.7115C25.8534 30.4514 25.7495 31.2085 25.7495 32.0344C25.7495 32.8604 25.8361 33.4282 26.1304 34.0821L15.8115 39.9497L15.725 39.8637L15.7423 39.8293ZM32.4325 36.1985C30.0952 36.1985 28.1215 34.2369 28.1215 31.914C28.1215 29.591 30.0952 27.6294 32.4325 27.6294C34.7698 27.6294 36.7436 29.591 36.7436 31.914C36.7436 34.2369 34.7698 36.1985 32.4325 36.1985ZM48.915 40.0185L38.7 34.1509C38.977 33.497 39.0809 32.7571 39.0809 31.914C39.0809 31.0708 38.8905 30.2449 38.6135 29.4878L48.7419 23.7062C49.2093 24.1707 49.8672 24.5493 50.5252 24.7386C50.9061 24.8246 51.1831 24.8246 51.564 24.8246C51.9449 24.8246 51.7544 24.8246 51.841 24.8246C52.6894 27.0616 53.1568 29.4878 53.1568 31.8968C53.1568 34.3058 52.6894 36.7492 51.841 38.9689C51.3735 38.9689 50.9061 38.9689 50.5252 39.0549C49.8672 39.2442 49.3998 39.5195 48.9323 39.8981V39.9841L48.915 40.0185ZM54.0744 39.8293C55.0094 37.317 55.4768 34.6155 55.4768 31.914C55.4768 29.2124 55.0094 26.5109 54.0744 23.8954C55.4768 22.6909 55.9443 20.6433 55.0094 18.957C54.0744 17.2879 52.0141 16.634 50.2308 17.2879C46.6642 13.0033 41.7991 10.2158 36.3627 9.26936C36.0857 7.41099 34.4928 6 32.5191 6C30.5454 6 28.9525 7.39378 28.6755 9.26936C23.239 10.1985 18.3566 13.0033 14.8074 17.2879C13.0241 16.634 10.9638 17.2879 10.0288 18.957C9.47479 19.8862 9.37091 20.9186 9.64792 21.9338C9.83837 22.777 10.3058 23.4308 10.9638 23.8954C10.0288 26.4249 9.54404 29.1264 9.54404 31.914C9.54404 34.7015 10.0115 37.317 10.9464 39.9325C10.2885 40.3971 9.82106 41.137 9.63061 41.9801C9.35359 43.0126 9.54404 44.0278 10.0115 44.957C10.479 45.8862 11.4139 46.54 12.3488 46.8154C12.7297 46.8154 13.0067 47.0046 13.3876 47.0046C13.7685 47.0046 14.3226 47.0046 14.79 46.7293C18.3566 51.0139 23.2217 53.8015 28.6582 54.7478C28.9352 56.6062 30.528 58 32.5018 58C34.4755 58 36.0684 56.6062 36.3454 54.7478C41.7818 53.8187 46.6642 51.0139 50.2135 46.7293C50.681 46.9186 51.1484 47.0046 51.6159 47.0046C52.0834 47.0046 52.2738 47.0046 52.6547 46.8154C53.6935 46.54 54.5246 45.8862 54.9921 44.957C55.927 43.2879 55.5461 41.137 54.0571 40.0185V39.8293H54.0744Z" fill="#29B5E8"/>
<path fill-rule="evenodd" clip-rule="evenodd" d="M45.7293 27.2508C44.6039 27.2508 43.7556 28.18 43.7556 29.2124C43.7556 30.2449 44.6905 31.1741 45.7293 31.1741C46.7681 31.1741 47.7031 30.2449 47.7031 29.2124C47.7031 28.18 46.7681 27.2508 45.7293 27.2508Z" fill="#29B5E8"/>
<path fill-rule="evenodd" clip-rule="evenodd" d="M45.7293 32.3786C44.6039 32.3786 43.7556 33.3077 43.7556 34.3402C43.7556 35.3726 44.6905 36.3018 45.7293 36.3018C46.7681 36.3018 47.7031 35.3726 47.7031 34.3402C47.7031 33.3077 46.7681 32.3786 45.7293 32.3786Z" fill="#29B5E8"/>
<path fill-rule="evenodd" clip-rule="evenodd" d="M19.1184 32.3786C17.993 32.3786 17.1447 33.3077 17.1447 34.3402C17.1447 35.3726 18.0796 36.3018 19.1184 36.3018C20.1572 36.3018 21.0922 35.3726 21.0922 34.3402C21.0922 33.3077 20.1572 32.3786 19.1184 32.3786Z" fill="#29B5E8"/>
<path fill-rule="evenodd" clip-rule="evenodd" d="M19.1184 27.2508C17.993 27.2508 17.1447 28.18 17.1447 29.2124C17.1447 30.2449 18.0796 31.1741 19.1184 31.1741C20.1572 31.1741 21.0922 30.2449 21.0922 29.2124C21.0922 28.18 20.1572 27.2508 19.1184 27.2508Z" fill="#29B5E8"/>
<path fill-rule="evenodd" clip-rule="evenodd" d="M35.1507 18.0278C34.5967 18.957 34.9603 20.1787 35.8952 20.7293C36.8302 21.2799 38.0594 20.9186 38.6135 19.9894C39.1675 19.0602 38.8039 17.8385 37.869 17.2879C36.934 16.7373 35.7048 17.0986 35.1507 18.0278Z" fill="#29B5E8"/>
<path fill-rule="evenodd" clip-rule="evenodd" d="M40.3967 23.2588C41.3317 23.8094 42.5609 23.448 43.115 22.5189C43.669 21.5897 43.3054 20.368 42.3705 19.8173C41.4356 19.2667 40.2063 19.6281 39.6523 20.5572C39.0982 21.4864 39.4618 22.7081 40.3967 23.2588Z" fill="#29B5E8"/>
<path fill-rule="evenodd" clip-rule="evenodd" d="M29.7143 45.5248C30.2683 44.5956 29.9048 43.3739 28.9698 42.8233C28.0349 42.2727 26.8056 42.634 26.2516 43.5632C25.6976 44.4924 26.0611 45.7141 26.9961 46.2647C27.931 46.8154 29.1603 46.454 29.7143 45.5248Z" fill="#29B5E8"/>
<path fill-rule="evenodd" clip-rule="evenodd" d="M24.451 40.2938C23.5161 39.7432 22.2868 40.1046 21.7328 41.0338C21.1787 41.9629 21.5423 43.1846 22.4772 43.7353C23.4122 44.2859 24.6414 43.9246 25.1955 42.9954C25.7495 42.0662 25.3859 40.8445 24.451 40.2938Z" fill="#29B5E8"/>
<path fill-rule="evenodd" clip-rule="evenodd" d="M24.451 23.2588C25.3859 22.7081 25.7668 21.4864 25.1955 20.5572C24.6414 19.6281 23.4122 19.2495 22.4772 19.8173C21.5423 20.368 21.1614 21.5897 21.7328 22.5189C22.2868 23.448 23.5161 23.8266 24.451 23.2588Z" fill="#29B5E8"/>
<path fill-rule="evenodd" clip-rule="evenodd" d="M28.9525 20.7293C29.8874 20.1787 30.2683 18.957 29.697 18.0278C29.143 17.0986 27.9137 16.7201 26.9788 17.2879C26.0438 17.8385 25.6629 19.0602 26.2343 19.9894C26.7883 20.9186 28.0176 21.2972 28.9525 20.7293Z" fill="#29B5E8"/>
<path fill-rule="evenodd" clip-rule="evenodd" d="M40.3967 40.2938C39.4618 40.8445 39.0809 42.0662 39.6523 42.9954C40.2063 43.9246 41.4356 44.3031 42.3705 43.7353C43.3054 43.1846 43.6863 41.9629 43.115 41.0338C42.5609 40.1046 41.3317 39.726 40.3967 40.2938Z" fill="#29B5E8"/>
<path fill-rule="evenodd" clip-rule="evenodd" d="M35.8952 42.8233C34.9603 43.3739 34.5794 44.5956 35.1507 45.5248C35.7048 46.454 36.934 46.8326 37.869 46.2647C38.8039 45.7141 39.1848 44.4924 38.6135 43.5632C38.0594 42.634 36.8302 42.2555 35.8952 42.8233Z" fill="#29B5E8"/>
</svg>
