<svg width="65" height="64" viewBox="0 0 65 64" fill="none" xmlns="http://www.w3.org/2000/svg">
<path d="M27.1 4.23999C16.07 4.23999 4.90002 7.57999 4.90002 13.97V45.61C4.90002 51.99 16.07 55.33 27.1 55.33C29.9 55.33 32.68 55.09 35.32 54.66C35.34 54.66 35.36 54.67 35.39 54.67C35.5 54.67 35.6 54.62 35.71 54.61C35.87 54.58 36.03 54.57 36.17 54.51C36.86 54.21 37.35 53.52 37.35 52.72C37.35 52.65 37.35 52.57 37.35 52.5C37.24 51.52 36.4 50.76 35.39 50.76C35.35 50.76 35.3 50.76 35.26 50.77C35.26 50.77 35.27 50.77 35.28 50.77C35.28 50.77 35.25 50.77 35.2 50.78C35.17 50.78 35.14 50.78 35.1 50.79C35.01 50.8 34.88 50.82 34.73 50.84C33.74 50.96 31.59 51.2 29.53 51.34C29.08 51.36 28.65 51.4 28.19 51.41C27.82 51.42 27.46 51.43 27.12 51.43C15.95 51.43 8.82002 47.98 8.82002 45.6V40.78C13.04 43.41 20.1 44.77 27.12 44.77C31.19 44.77 34.96 44.4 38.5 43.5C38.5 43.5 38.34 43.53 38.19 43.55C38.12 43.55 38.06 43.57 38.02 43.57C38.53 43.57 38.99 43.36 39.34 43.04C39.66 42.75 39.85 42.35 39.92 41.9C39.94 41.8 39.94 41.71 39.94 41.61C39.94 40.53 39.1 39.65 38.02 39.65L37.45 39.75H37.37C34.47 40.51 31.36 40.87 27.13 40.87C15.96 40.87 8.83002 37.42 8.83002 35.04V30.25C13.05 32.88 20.11 34.24 27.13 34.24C34.15 34.24 41.22 32.88 45.43 30.25V31.03C45.43 32.11 46.31 32.99 47.39 32.99C47.92 32.99 48.4 32.77 48.76 32.43C48.99 32.2 49.14 31.91 49.24 31.59C49.29 31.44 49.33 31.29 49.33 31.12V13.97C49.33 7.57999 38.16 4.23999 27.13 4.23999H27.1ZM45.4 24.53C45.4 26.91 38.27 30.36 27.1 30.36C15.93 30.36 8.80002 26.91 8.80002 24.53V19.71C13.02 22.34 20.08 23.7 27.1 23.7C34.12 23.7 41.19 22.34 45.4 19.71V24.53ZM27.1 19.79C15.93 19.79 8.80002 16.34 8.80002 13.96C8.80002 11.58 15.93 8.12999 27.1 8.12999C38.27 8.12999 45.4 11.58 45.4 13.96C45.4 16.34 38.27 19.79 27.1 19.79ZM57.29 44.58V42.01C57.29 38.19 54.09 35.08 50.17 35.08H49.11C45.16 35.08 41.95 38.19 41.95 42.01V44.58C40.3 45.28 39.14 46.89 39.14 48.75V55.7C39.14 58.21 41.23 60.25 43.81 60.25H55.43C58 60.25 60.1 58.21 60.1 55.7V48.75C60.1 46.89 58.94 45.28 57.29 44.58ZM45.37 42.01C45.37 40.07 47.05 38.49 49.12 38.49H50.18C52.23 38.49 53.89 40.07 53.89 42.01V44.2H45.37V42.01ZM56.69 55.7C56.69 56.33 56.13 56.84 55.43 56.84H43.81C43.12 56.84 42.55 56.33 42.55 55.7V48.75C42.55 48.11 43.1 47.61 43.81 47.61H55.43C56.13 47.61 56.69 48.11 56.69 48.75V55.7ZM49.64 48.44C48.23 48.44 46.86 49.51 46.86 50.88V53.56C46.86 54.9 48.25 56 49.64 56C51.03 56 52.42 54.88 52.42 53.56V50.88C52.42 49.54 51.03 48.44 49.64 48.44ZM50.14 53.01C50.14 53.07 50.14 53.46 49.63 53.46C49.12 53.46 49.12 53.09 49.12 53.01V51.43C49.12 51.29 49.12 50.98 49.63 50.98C50.14 50.98 50.14 51.33 50.14 51.43V53.01Z" fill="#29B5E8"/>
</svg>
