<?xml version="1.0" encoding="UTF-8"?>
<svg width="26px" height="26px" viewBox="0 0 26 26" version="1.1" xmlns="http://www.w3.org/2000/svg" xmlns:xlink="http://www.w3.org/1999/xlink">
    <!-- Generator: Sketch 64 (93537) - https://sketch.com -->
    <title>icon-plus-white</title>
    <desc>Created with Sketch.</desc>
    <g id="R3-FINAL" stroke="none" stroke-width="1" fill="none" fill-rule="evenodd">
        <g id="SNO-DataCloudAcademy_Desktop" transform="translate(-645.000000, -1977.000000)" fill="#29B5E8">
            <g id="icon-plus-white" transform="translate(645.000000, 1977.000000)">
                <g id="Icon-/-Utility-/-Expand">
                    <path d="M12.8742187,25.74 C15.1942187,25.74 17.3442187,25.16 19.3242187,24 C21.3042187,22.84 22.8642187,21.28 24.0042187,19.32 C25.1442187,17.36 25.7142187,15.21 25.7142187,12.87 C25.8342187,10.53 25.2642187,8.38 24.0042187,6.42 C22.7442187,4.46 21.1842187,2.9 19.3242187,1.74 C17.4642187,0.58 15.3142187,-1.70530257e-13 12.8742187,-1.70530257e-13 C10.4342187,-1.70530257e-13 8.27421875,0.58 6.39421875,1.74 C4.51421875,2.9 2.96421875,4.46 1.74421875,6.42 C0.52421875,8.38 -0.05578125,10.53 0.00421875,12.87 C0.06421875,15.21 0.64421875,17.36 1.74421875,19.32 C2.84421875,21.28 4.39421875,22.84 6.39421875,24 C8.39421875,25.16 10.5542187,25.74 12.8742187,25.74 Z M13.9242187,20.37 L11.7942187,20.37 C11.5142187,20.35 11.2642187,20.24 11.0442187,20.04 C10.8242187,19.84 10.7142187,19.59 10.7142187,19.29 L10.7142187,19.29 L10.7142187,15 L6.42421875,15 C6.12421875,15.02 5.87421875,14.92 5.67421875,14.7 C5.47421875,14.48 5.37421875,14.23 5.37421875,13.95 L5.37421875,13.95 L5.37421875,11.79 C5.35421875,11.49 5.45421875,11.24 5.67421875,11.04 C5.89421875,10.84 6.14421875,10.74 6.42421875,10.74 L6.42421875,10.74 L10.7142187,10.74 L10.7142187,6.45 C10.7342187,6.17 10.8442187,5.92 11.0442187,5.7 C11.2442187,5.48 11.4942187,5.37 11.7942187,5.37 L11.7942187,5.37 L13.9242187,5.37 C14.2042187,5.39 14.4542187,5.5 14.6742187,5.7 C14.8942187,5.9 15.0042187,6.15 15.0042187,6.45 L15.0042187,6.45 L15.0042187,10.74 L19.2942187,10.74 C19.5742187,10.72 19.8242187,10.82 20.0442187,11.04 C20.2642187,11.26 20.3742187,11.51 20.3742187,11.79 L20.3742187,11.79 L20.3742187,13.95 C20.3742187,14.25 20.2642187,14.5 20.0442187,14.7 C19.8242187,14.9 19.5742187,15 19.2942187,15 L19.2942187,15 L15.0042187,15 L15.0042187,19.29 C14.9842187,19.57 14.8742187,19.82 14.6742187,20.04 C14.4742187,20.26 14.2242187,20.37 13.9242187,20.37 L13.9242187,20.37 Z" fill="#29B5E8"></path>
                </g>
            </g>
        </g>
    </g>
</svg>